<svg width="19" height="20" viewBox="0 0 19 20" fill="none" xmlns="http://www.w3.org/2000/svg">
<g clip-path="url(#clip0_218_932)">
<path d="M6.61875 1.12493C4.72036 1.7835 3.08318 3.03349 1.94771 4.69129C0.81223 6.34909 0.238301 8.32733 0.31022 10.3354C0.38214 12.3435 1.09612 14.2756 2.34728 15.848C3.59844 17.4203 5.32084 18.5499 7.26149 19.071C8.83481 19.477 10.4832 19.4948 12.0649 19.123C13.4978 18.8011 14.8226 18.1127 15.9095 17.125C17.0407 16.0657 17.8618 14.7181 18.2845 13.227C18.7439 11.6056 18.8257 9.90045 18.5234 8.2425H9.68844V11.9074H14.8051C14.7028 12.492 14.4837 13.0498 14.1608 13.5477C13.8379 14.0456 13.4179 14.4732 12.9259 14.8049C12.3011 15.2182 11.5967 15.4963 10.8581 15.6213C10.1173 15.7591 9.35751 15.7591 8.61672 15.6213C7.86591 15.4661 7.15565 15.1562 6.53117 14.7114C5.52796 14.0013 4.77468 12.9924 4.37883 11.8288C3.97629 10.6433 3.97629 9.35817 4.37883 8.17274C4.6606 7.34181 5.12641 6.58525 5.74149 5.95954C6.44536 5.23033 7.33649 4.70909 8.31711 4.45301C9.29772 4.19692 10.3299 4.21589 11.3005 4.50782C12.0586 4.74055 12.752 5.14719 13.3252 5.69532C13.9021 5.12136 14.478 4.54592 15.053 3.96899C15.3498 3.65875 15.6734 3.36336 15.9659 3.04571C15.0909 2.23149 14.0639 1.59793 12.9437 1.18133C10.9037 0.440615 8.67161 0.420709 6.61875 1.12493Z" fill="#F2F2F2"/>
<path d="M6.61881 1.12492C8.6715 0.420219 10.9036 0.439601 12.9437 1.17984C14.0642 1.59927 15.0907 2.23588 15.9644 3.05312C15.6676 3.37078 15.3544 3.66765 15.0515 3.9764C14.4756 4.55135 13.9002 5.12432 13.3252 5.69531C12.752 5.14718 12.0587 4.74054 11.3005 4.50781C10.3303 4.21485 9.29813 4.19479 8.31726 4.44983C7.33639 4.70487 6.44471 5.22515 5.74006 5.95359C5.12498 6.5793 4.65918 7.33586 4.3774 8.16679L1.30029 5.78437C2.40171 3.6002 4.30875 1.92948 6.61881 1.12492Z" fill="#E33629"/>
<path d="M0.483863 8.14452C0.649254 7.32484 0.923837 6.53104 1.30027 5.78436L4.37738 8.17272C3.97484 9.35815 3.97484 10.6433 4.37738 11.8287C3.35217 12.6204 2.32647 13.416 1.30027 14.2156C0.357915 12.3398 0.070513 10.2026 0.483863 8.14452Z" fill="#F8BD00"/>
<path d="M9.68865 8.24103H18.5236C18.8259 9.89897 18.7441 11.6041 18.2847 13.2256C17.862 14.7166 17.0409 16.0642 15.9097 17.1235C14.9166 16.3487 13.9191 15.5798 12.9261 14.8049C13.4184 14.4728 13.8386 14.0448 14.1615 13.5464C14.4844 13.048 14.7034 12.4895 14.8053 11.9045H9.68865C9.68716 10.6843 9.68865 9.46267 9.68865 8.24103Z" fill="#587DBD"/>
<path d="M1.29883 14.2156C2.32503 13.4239 3.35073 12.6283 4.37594 11.8287C4.77257 12.9928 5.52693 14.0017 6.53125 14.7114C7.15767 15.1541 7.86946 15.4615 8.62125 15.6139C9.36204 15.7516 10.1219 15.7516 10.8627 15.6139C11.6013 15.4889 12.3056 15.2108 12.9304 14.7975C13.9234 15.5723 14.9209 16.3412 15.914 17.1161C14.8273 18.1043 13.5025 18.7932 12.0695 19.1155C10.4877 19.4874 8.83934 19.4695 7.26602 19.0636C6.02167 18.7313 4.85936 18.1456 3.85195 17.3432C2.78567 16.4966 1.91478 15.4298 1.29883 14.2156Z" fill="#319F43"/>
</g>
<defs>
<clipPath id="clip0_218_932">
<rect width="19" height="19" fill="white" transform="translate(0 0.5)"/>
</clipPath>
</defs>
</svg>
